<svg width="340" height="340" viewBox="0 0 340 340" fill="none" xmlns="http://www.w3.org/2000/svg">
  <path
      d="M335.487 245.625H4.51315C2.0206 245.625 0 247.791 0 250.462V259.445C0 262.117 2.0206 264.283 4.51315 264.283H335.487C337.979 264.283 340 262.117 340 259.445V250.462C340 247.791 337.979 245.625 335.487 245.625Z"
      fill="black"/>
  <path
      d="M158.738 115.804C158.738 115.804 152.271 116.278 154.331 125.411C156.391 134.543 162.277 123.189 162.277 123.189L158.738 115.804Z"
      fill="#F5C2A2"/>
  <path
      d="M94.9474 291.9C96.1958 292.618 169.049 288.841 170.685 287.337C171.271 286.8 171.234 283.342 170.766 278.41C169.923 269.434 164.848 254.103 162.027 244.652C162.027 244.652 136.533 246.363 134.261 247.811C131.989 249.259 107.419 270.002 107.419 270.002C107.419 270.002 98.056 273.566 94.6915 279.11C93.7828 280.634 93.2182 282.338 93.0372 284.103C92.6253 287.992 94.0672 291.413 94.9474 291.9Z"
      fill="#0C150E"/>
  <path
      d="M94.947 291.893C96.1955 292.611 169.049 288.835 170.684 287.33C171.271 286.794 171.234 283.335 170.765 278.404L93.0432 284.103C92.6249 287.986 94.0669 291.407 94.947 291.893Z"
      fill="white"/>
  <path
      d="M115.842 263.582C115.709 263.584 115.58 263.534 115.482 263.444C115.385 263.353 115.326 263.228 115.318 263.095C115.308 262.956 115.353 262.817 115.444 262.711C115.535 262.604 115.665 262.538 115.805 262.527L135.537 260.948L126.385 254.968C126.268 254.891 126.186 254.772 126.157 254.635C126.128 254.498 126.154 254.355 126.229 254.237C126.307 254.12 126.428 254.038 126.566 254.009C126.703 253.98 126.847 254.006 126.966 254.081L137.409 260.911C137.503 260.97 137.575 261.058 137.615 261.161C137.655 261.264 137.662 261.378 137.634 261.485C137.607 261.591 137.547 261.686 137.463 261.757C137.379 261.827 137.275 261.87 137.166 261.878L115.886 263.582H115.842Z"
      fill="white"/>
  <path
      d="M184.084 177.269C184.084 177.269 143.641 148.649 108.734 157.45C73.8276 166.252 124.808 251.115 124.808 251.115L175.545 251.228L170.601 226.883L231.507 226.771L204.634 188.693L184.084 177.269Z"
      fill="#EE6222"/>
  <path
      d="M137.3 182.357C137.211 182.358 137.123 182.336 137.044 182.293C136.965 182.25 136.899 182.189 136.851 182.114C136.807 182.039 132.331 175.022 126.345 169.91C126.291 169.865 126.247 169.81 126.215 169.748C126.183 169.686 126.164 169.618 126.158 169.548C126.152 169.479 126.16 169.409 126.182 169.342C126.203 169.276 126.237 169.214 126.282 169.161C126.375 169.055 126.505 168.991 126.645 168.98C126.785 168.97 126.924 169.014 127.031 169.105C133.143 174.323 137.699 181.471 137.743 181.546C137.781 181.604 137.807 181.669 137.819 181.738C137.832 181.806 137.83 181.877 137.815 181.945C137.8 182.013 137.772 182.077 137.731 182.134C137.691 182.191 137.64 182.239 137.581 182.276C137.497 182.329 137.399 182.357 137.3 182.357Z"
      fill="black"/>
  <path
      d="M199.69 111.957L155.133 147.401C155.133 147.401 154.79 170.872 176.837 177.282C198.885 183.693 201.444 156.964 201.444 156.964L199.69 111.957Z"
      fill="#5FCF86"/>
  <path
      d="M171.101 141.346C171.101 141.346 172.181 154.53 161.675 153.275C151.169 152.021 151.812 136.933 151.812 136.933L171.101 141.346Z"
      fill="#F5C2A2"/>
  <path
      d="M253.095 208.482C253.095 208.482 273.338 135.448 256.297 115.317C239.256 95.1856 199.692 111.958 199.692 111.958L180.766 179.013L253.095 208.482Z"
      fill="#5FCF86"/>
  <path
      d="M224.033 158.845C224.033 158.845 213.802 142.615 208.834 140.793C203.865 138.97 191.867 141.379 191.867 142.815C191.867 144.251 202.978 146.005 202.978 146.005C202.978 146.005 196.736 156.923 196.63 159.376C196.524 161.829 202.167 168.983 203.403 169.694C204.639 170.406 207.772 166.423 207.772 166.423C207.772 166.423 211.206 170.574 216.05 171.854C220.894 173.134 226.437 165.799 226.437 165.799L224.033 158.845Z"
      fill="#F5C2A2"/>
  <path
      d="M207.749 166.952C207.662 166.952 203.58 166.253 203.58 166.253C203.509 166.242 203.442 166.218 203.381 166.18C203.321 166.143 203.269 166.093 203.228 166.034C203.188 165.976 203.16 165.91 203.146 165.84C203.133 165.77 203.134 165.698 203.149 165.629C203.16 165.558 203.185 165.491 203.223 165.431C203.261 165.371 203.31 165.319 203.368 165.278C203.427 165.237 203.493 165.209 203.562 165.194C203.632 165.179 203.703 165.178 203.773 165.192L206.27 165.61L204.21 163.519C204.111 163.419 204.055 163.285 204.055 163.144C204.055 163.004 204.111 162.869 204.21 162.77C204.259 162.72 204.317 162.68 204.381 162.653C204.446 162.626 204.515 162.612 204.585 162.612C204.654 162.612 204.723 162.626 204.788 162.653C204.852 162.68 204.91 162.72 204.959 162.77L208.168 166.022C208.248 166.102 208.301 166.206 208.317 166.319C208.334 166.431 208.315 166.546 208.261 166.646C208.216 166.742 208.143 166.822 208.052 166.877C207.961 166.931 207.855 166.957 207.749 166.952Z"
      fill="black"/>
  <path
      d="M209.656 147.653C209.569 147.653 202.896 146.523 202.896 146.523C202.826 146.512 202.758 146.486 202.698 146.449C202.638 146.411 202.586 146.361 202.545 146.303C202.504 146.245 202.476 146.179 202.461 146.11C202.446 146.04 202.445 145.968 202.459 145.899C202.47 145.828 202.495 145.761 202.533 145.701C202.571 145.641 202.62 145.589 202.678 145.548C202.737 145.507 202.802 145.479 202.872 145.464C202.941 145.449 203.013 145.448 203.083 145.462L209.756 146.585C209.826 146.596 209.894 146.62 209.954 146.658C210.015 146.696 210.067 146.745 210.107 146.804C210.148 146.862 210.176 146.929 210.189 146.998C210.203 147.068 210.202 147.14 210.187 147.209C210.166 147.335 210.101 147.448 210.004 147.529C209.906 147.611 209.783 147.654 209.656 147.653Z"
      fill="black"/>
  <path
      d="M241.578 94.7542L241.26 107.788C241.26 107.788 238.813 111.477 231.172 111.908C225.486 112.232 223.52 110.903 223.52 110.903L224.475 104.317L225.411 97.9002L239.256 95.2098L241.578 94.7542Z"
      fill="#F5C2A2"/>
  <path
      d="M239.045 96.3135C238.973 96.7325 238.834 97.1371 238.633 97.5119C235.574 103.692 227.647 104.872 224.395 105.084L225.337 98.9289L239.045 96.3135Z"
      fill="black"/>
  <path
      d="M223.657 70.3527C223.657 70.3527 216.716 85.8585 219.088 94.6226C221.46 103.387 229.437 102.113 234.219 100.434C239 98.755 241.241 95.8835 241.241 95.8835C242.596 96.2949 244.045 96.2684 245.384 95.8077C246.722 95.3471 247.881 94.4757 248.695 93.318C251.71 89.2043 249.943 84.4353 247.384 83.3304C244.825 82.2255 241.816 84.0295 241.816 84.0295L244.225 79.5226C244.225 79.5226 234.487 56.445 223.657 70.3527Z"
      fill="#F5C2A2"/>
  <path
      d="M224.23 90.1751C224.117 90.1739 224.007 90.137 223.917 90.0698C223.826 90.0025 223.759 89.9083 223.724 89.8006C222.695 86.4485 225.054 83.059 225.16 82.9341C225.242 82.8204 225.365 82.7435 225.503 82.7201C225.641 82.6967 225.782 82.7288 225.897 82.8093C226.011 82.8908 226.087 83.014 226.111 83.1519C226.134 83.2899 226.102 83.4314 226.022 83.5459C226.022 83.5459 223.862 86.667 224.736 89.5073C224.757 89.5736 224.765 89.6436 224.758 89.713C224.752 89.7824 224.732 89.8498 224.7 89.9114C224.667 89.973 224.623 90.0275 224.569 90.0717C224.515 90.116 224.453 90.149 224.386 90.169C224.335 90.1766 224.282 90.1786 224.23 90.1751Z"
      fill="black"/>
  <path
      d="M242.486 91.3604C242.418 91.3605 242.352 91.3473 242.29 91.3216C242.228 91.2959 242.171 91.2582 242.124 91.2106C242.024 91.1112 241.969 90.9765 241.969 90.8361C241.969 90.6957 242.024 90.561 242.124 90.4616L246.368 85.9921C246.417 85.9432 246.475 85.9044 246.539 85.878C246.602 85.8515 246.671 85.8379 246.74 85.8379C246.809 85.8379 246.877 85.8515 246.941 85.878C247.004 85.9044 247.062 85.9432 247.111 85.9921C247.21 86.0916 247.266 86.2262 247.266 86.3666C247.266 86.507 247.21 86.6417 247.111 86.7412L242.866 91.2106C242.817 91.2604 242.757 91.2995 242.692 91.3252C242.626 91.351 242.556 91.363 242.486 91.3604Z"
      fill="black"/>
  <path
      d="M246.966 90.1638L243.963 89.7081C243.893 89.6967 243.825 89.6716 243.765 89.6339C243.704 89.5963 243.652 89.5469 243.611 89.4888C243.57 89.4307 243.54 89.3651 243.525 89.2955C243.509 89.226 243.508 89.154 243.52 89.0838C243.531 89.0135 243.557 88.9462 243.594 88.8856C243.632 88.8251 243.681 88.7727 243.739 88.7314C243.797 88.6902 243.863 88.6609 243.933 88.6453C244.002 88.6297 244.074 88.6282 244.144 88.6407L247.066 89.0901C247.136 89.1006 247.204 89.1253 247.265 89.1627C247.326 89.2001 247.379 89.2495 247.42 89.3078C247.462 89.3661 247.491 89.4322 247.506 89.502C247.521 89.5719 247.522 89.6441 247.509 89.7143C247.49 89.8433 247.425 89.9609 247.324 90.0439C247.224 90.127 247.096 90.1698 246.966 90.1638Z"
      fill="black"/>
  <path
      d="M165.429 149.305L182.985 147.855C183.518 147.812 183.914 147.344 183.87 146.812L180.9 110.841C180.856 110.309 180.388 109.913 179.856 109.957L162.3 111.406C161.767 111.45 161.371 111.918 161.415 112.45L164.385 148.42C164.429 148.953 164.897 149.349 165.429 149.305Z"
      fill="white"/>
  <path
      d="M162.609 149.537L180.165 148.088C180.697 148.044 181.093 147.577 181.049 147.044L178.079 111.074C178.035 110.541 177.568 110.145 177.035 110.189L159.48 111.639C158.947 111.683 158.551 112.15 158.595 112.683L161.565 148.653C161.609 149.185 162.076 149.581 162.609 149.537Z"
      fill="black"/>
  <path
      d="M241.842 84.0258C241.612 84.1702 241.354 84.2648 241.086 84.3035C240.817 84.3423 240.544 84.3243 240.283 84.2508C240.022 84.1773 239.779 84.0498 239.57 83.8766C239.361 83.7035 239.191 83.4885 239.07 83.2456C237.903 81.4166 240.468 76.0233 240.468 76.0233C240.468 76.0233 235.649 77.1094 232.672 75.5052C229.694 73.9009 228.246 69.5189 228.246 69.5189C228.246 69.5189 226.042 74.082 219.469 72.0533C212.896 70.0245 211.667 61.0731 218.689 59.2629C225.712 57.4526 229.544 60.5675 229.544 60.5675C229.544 60.5675 230.449 54.0693 239.126 57.2966C247.029 60.2429 248.346 70.1556 248.346 70.1556C249.762 70.2783 251.093 70.8802 252.12 71.862C253.147 72.8437 253.809 74.1466 253.995 75.5551C254.9 80.7237 248.845 84.4503 248.845 84.4503C248.845 84.4503 245.418 82.4278 241.842 84.0258Z"
      fill="black"/>
  <path
      d="M231.287 84.3572C231.209 84.3562 231.133 84.3387 231.062 84.3057C230.992 84.2727 230.93 84.225 230.879 84.1658C230.829 84.1067 230.792 84.0374 230.771 83.9627C230.749 83.8881 230.744 83.8097 230.756 83.7329L231.137 80.8365C231.145 80.7643 231.168 80.6945 231.204 80.6317C231.241 80.5688 231.29 80.5143 231.349 80.4714C231.407 80.4286 231.474 80.3984 231.545 80.3828C231.616 80.3672 231.69 80.3666 231.761 80.3808C231.833 80.3898 231.902 80.4134 231.965 80.4502C232.027 80.4869 232.081 80.536 232.124 80.5945C232.167 80.653 232.197 80.7196 232.213 80.7902C232.229 80.8608 232.23 80.9339 232.217 81.0051L231.842 83.9015C231.822 84.0327 231.755 84.1518 231.652 84.236C231.549 84.3201 231.419 84.3633 231.287 84.3572Z"
      fill="black"/>
  <path
      d="M222.679 83.6695C222.602 83.6677 222.526 83.6495 222.456 83.6161C222.387 83.5827 222.325 83.5349 222.276 83.4759C222.226 83.4168 222.19 83.3479 222.169 83.2736C222.148 83.1994 222.143 83.1215 222.155 83.0453L222.585 80.1551C222.596 80.0842 222.621 80.0161 222.658 79.9549C222.695 79.8937 222.744 79.8405 222.803 79.7986C222.861 79.7567 222.927 79.727 222.997 79.711C223.067 79.695 223.139 79.6932 223.209 79.7057C223.281 79.7154 223.349 79.7395 223.411 79.7766C223.473 79.8137 223.526 79.8629 223.568 79.9213C223.61 79.9797 223.64 80.046 223.656 80.1162C223.671 80.1865 223.672 80.2592 223.659 80.3299L223.222 83.2201C223.204 83.3491 223.138 83.4665 223.037 83.5496C222.937 83.6327 222.809 83.6755 222.679 83.6695Z"
      fill="black"/>
  <path
      d="M233.999 78.8285C233.901 78.828 233.806 78.8003 233.723 78.7484C233.64 78.6966 233.574 78.6227 233.531 78.5351C232.838 77.1868 230.978 77.555 230.897 77.5738C230.76 77.6016 230.618 77.5746 230.501 77.4987C230.385 77.4228 230.302 77.304 230.272 77.168C230.245 77.0315 230.272 76.8895 230.347 76.7727C230.423 76.656 230.542 76.5737 230.678 76.5438C230.791 76.5438 233.412 75.982 234.473 78.0607C234.537 78.1857 234.548 78.3307 234.505 78.4641C234.461 78.5974 234.367 78.7082 234.243 78.7723C234.168 78.8124 234.084 78.8318 233.999 78.8285Z"
      fill="black"/>
  <path
      d="M225.595 77.0191C225.509 77.0195 225.424 76.9986 225.348 76.9583C225.272 76.918 225.206 76.8596 225.158 76.7882C225.059 76.6222 224.924 76.4802 224.763 76.3723C224.602 76.2644 224.419 76.1932 224.228 76.164C223.536 76.171 222.87 76.4307 222.355 76.8943C222.303 76.941 222.242 76.9769 222.176 76.9997C222.11 77.0225 222.04 77.0319 221.97 77.0272C221.901 77.0226 221.832 77.004 221.77 76.9726C221.707 76.9412 221.652 76.8976 221.606 76.8443C221.56 76.7928 221.525 76.7327 221.502 76.6674C221.479 76.6021 221.469 76.5329 221.474 76.4639C221.478 76.3948 221.495 76.3273 221.526 76.2651C221.556 76.2029 221.598 76.1473 221.65 76.1015C221.706 76.0516 223.005 74.9529 224.347 75.1152C224.689 75.1617 225.017 75.284 225.306 75.4729C225.596 75.6618 225.839 75.9128 226.02 76.2076C226.06 76.2648 226.088 76.3293 226.103 76.3975C226.118 76.4657 226.119 76.5362 226.106 76.6048C226.093 76.6734 226.067 76.7387 226.028 76.797C225.99 76.8553 225.94 76.9054 225.882 76.9442C225.796 76.996 225.696 77.022 225.595 77.0191Z"
      fill="black"/>
  <path
      d="M154.952 132.981C154.952 132.981 145.726 131.92 148.566 127.675C151.407 123.43 168.092 121.402 169.871 126.383C171.65 131.364 154.952 132.981 154.952 132.981Z"
      fill="#F5C2A2"/>
  <path
      d="M155.944 140.598C155.944 140.598 146.718 139.537 149.559 135.298C152.399 131.06 169.084 129.056 170.863 134.006C172.642 138.956 155.944 140.598 155.944 140.598Z"
      fill="#F5C2A2"/>
  <path
      d="M161.285 146.97C159.31 147.655 157.187 147.8 155.137 147.388C153.32 146.988 151.728 146.071 152.64 144.011C154.475 139.878 168.72 135.596 171.023 139.641C172.74 142.706 165.224 145.665 161.285 146.97Z"
      fill="#F5C2A2"/>
  <path
      d="M153.864 131.966C153.73 131.965 153.601 131.914 153.503 131.822C153.404 131.731 153.344 131.607 153.333 131.473C153.324 131.333 153.371 131.194 153.463 131.088C153.556 130.982 153.686 130.916 153.826 130.905L164.538 130.106C164.608 130.097 164.679 130.103 164.746 130.123C164.814 130.144 164.876 130.178 164.93 130.224C164.983 130.27 165.026 130.326 165.057 130.39C165.087 130.453 165.104 130.522 165.106 130.593C165.112 130.662 165.104 130.732 165.083 130.798C165.061 130.865 165.027 130.926 164.982 130.979C164.936 131.032 164.881 131.075 164.819 131.106C164.756 131.138 164.688 131.156 164.619 131.161L153.901 131.96L153.864 131.966Z"
      fill="black"/>
  <path
      d="M155.618 140.397C155.483 140.397 155.354 140.347 155.255 140.255C155.157 140.163 155.097 140.038 155.087 139.904C155.082 139.834 155.091 139.765 155.113 139.699C155.135 139.633 155.17 139.572 155.216 139.52C155.262 139.467 155.318 139.425 155.38 139.394C155.443 139.364 155.511 139.346 155.58 139.342L166.292 138.537C166.362 138.532 166.431 138.54 166.497 138.563C166.563 138.585 166.624 138.62 166.676 138.666C166.729 138.712 166.771 138.767 166.802 138.83C166.832 138.892 166.85 138.96 166.854 139.03C166.86 139.099 166.852 139.169 166.831 139.234C166.809 139.3 166.775 139.361 166.729 139.414C166.684 139.466 166.628 139.509 166.566 139.539C166.504 139.57 166.436 139.588 166.367 139.592L155.655 140.397H155.618Z"
      fill="black"/>
  <path
      d="M28.9598 264.046C29.5465 265.363 90.4709 305.469 92.6806 305.244C93.4734 305.163 95.4959 302.354 98.0427 298.103C102.674 290.369 107.668 275.007 111.002 265.731C111.002 265.731 89.4471 251.998 86.7567 251.836C84.0663 251.673 51.9874 253.814 51.9874 253.814C51.9874 253.814 42.3244 251.136 36.3381 253.608C34.7078 254.295 33.2465 255.328 32.0559 256.636C29.4029 259.52 28.5415 263.128 28.9598 264.046Z"
      fill="#0C150E"/>
  <path
      d="M28.9598 264.043C29.5465 265.361 90.4708 305.467 92.6806 305.242C93.4734 305.161 95.4959 302.352 98.0427 298.101L32.0559 256.634C29.4029 259.518 28.5415 263.126 28.9598 264.043Z"
      fill="white"/>
  <path
      d="M79.0243 265.056C78.9257 265.057 78.8288 265.031 78.7434 264.982L60.591 253.746C60.4721 253.671 60.3873 253.552 60.3546 253.416C60.3219 253.279 60.344 253.135 60.4162 253.015C60.4908 252.896 60.6096 252.811 60.7465 252.78C60.8834 252.748 61.0273 252.772 61.1465 252.847L78.0006 263.259L74.1741 253.021C74.1491 252.957 74.1371 252.888 74.139 252.818C74.1408 252.749 74.1565 252.681 74.1849 252.617C74.2134 252.554 74.2541 252.497 74.3047 252.45C74.3554 252.402 74.4149 252.365 74.48 252.341C74.5446 252.315 74.6138 252.302 74.6834 252.304C74.753 252.305 74.8216 252.321 74.8851 252.349C74.9487 252.378 75.0058 252.419 75.0531 252.47C75.1003 252.521 75.1368 252.581 75.1603 252.647L79.5299 264.339C79.577 264.445 79.5872 264.564 79.5589 264.677C79.5307 264.79 79.4655 264.891 79.3739 264.963C79.2719 265.034 79.1482 265.067 79.0243 265.056Z"
      fill="white"/>
  <path
      d="M253.095 208.481C253.095 208.481 165.897 164.161 146.677 170.46C121.439 178.756 75.7148 247.19 75.7148 247.19L115.79 285.979C115.79 285.979 157.301 229.955 163.949 230.698C171.633 231.553 214.88 249.736 230.26 244.793C245.641 239.849 253.095 208.481 253.095 208.481Z"
      fill="#F26A2B"/>
  <path
      d="M237.109 209.954C237.061 209.96 237.013 209.96 236.965 209.954C236.821 209.916 236.698 209.822 236.623 209.693C236.548 209.564 236.527 209.411 236.566 209.267L238.37 202.482C238.388 202.411 238.42 202.344 238.464 202.285C238.508 202.227 238.563 202.177 238.626 202.14C238.69 202.103 238.76 202.079 238.832 202.069C238.905 202.059 238.979 202.063 239.05 202.082C239.194 202.12 239.317 202.214 239.392 202.343C239.467 202.472 239.487 202.625 239.449 202.769L237.652 209.554C237.616 209.67 237.544 209.771 237.446 209.843C237.348 209.915 237.23 209.954 237.109 209.954Z"
      fill="black"/>
  <path
      d="M183.892 192.914C183.817 192.913 183.744 192.898 183.676 192.868C183.607 192.839 183.546 192.796 183.494 192.743C183.442 192.69 183.402 192.626 183.375 192.557C183.348 192.488 183.334 192.414 183.336 192.34L183.523 185.111C183.522 185.037 183.537 184.963 183.566 184.894C183.594 184.825 183.637 184.763 183.691 184.712C183.745 184.66 183.809 184.62 183.879 184.594C183.949 184.569 184.023 184.558 184.098 184.562C184.171 184.564 184.244 184.58 184.311 184.61C184.378 184.639 184.439 184.682 184.489 184.736C184.54 184.789 184.579 184.852 184.605 184.921C184.631 184.99 184.643 185.063 184.641 185.136L184.453 192.365C184.45 192.512 184.39 192.651 184.285 192.754C184.18 192.857 184.039 192.914 183.892 192.914Z"
      fill="black"/>
  <path
      d="M189.859 197.41C189.71 197.41 189.567 197.351 189.461 197.246C189.356 197.141 189.297 196.998 189.297 196.849V189.189C189.297 189.04 189.356 188.898 189.461 188.792C189.567 188.687 189.71 188.628 189.859 188.628C190.008 188.628 190.151 188.687 190.256 188.792C190.361 188.898 190.42 189.04 190.42 189.189V196.849C190.42 196.998 190.361 197.141 190.256 197.246C190.151 197.351 190.008 197.41 189.859 197.41Z"
      fill="black"/>
  <path
      d="M227.923 94.5649C227.57 94.5642 227.22 94.5159 226.88 94.4213C226.749 94.386 226.637 94.3012 226.567 94.1848C226.497 94.0684 226.475 93.9294 226.506 93.7971C226.54 93.6649 226.624 93.5511 226.74 93.48C226.857 93.4089 226.997 93.386 227.13 93.4163C229.415 94.0406 230.744 91.8558 230.8 91.7684C230.873 91.6489 230.99 91.5629 231.125 91.529C231.261 91.4951 231.404 91.5161 231.524 91.5873C231.645 91.6588 231.732 91.7751 231.767 91.9108C231.802 92.0465 231.782 92.1905 231.712 92.3115C231.312 92.9682 230.758 93.5171 230.098 93.91C229.437 94.3028 228.69 94.5277 227.923 94.5649Z"
      fill="black"/>
  <path
      d="M162.545 231.231C162.474 231.232 162.404 231.218 162.338 231.19C162.272 231.162 162.213 231.121 162.165 231.069C161.253 230.133 153.332 221.818 154.593 218.491C154.811 217.929 155.379 217.242 156.865 217.111C157.494 217.047 158.13 217.126 158.725 217.342C159.319 217.558 159.857 217.906 160.298 218.36C163.625 221.649 163.095 230.364 163.07 230.738C163.064 230.84 163.028 230.938 162.967 231.02C162.906 231.102 162.822 231.165 162.726 231.2C162.668 231.219 162.607 231.23 162.545 231.231ZM157.258 218.16H156.946C155.816 218.247 155.641 218.709 155.585 218.859C154.88 220.732 158.881 225.957 162.052 229.402C162.052 226.905 161.84 221.368 159.555 219.103C159.257 218.797 158.9 218.555 158.504 218.393C158.109 218.231 157.685 218.152 157.258 218.16Z"
      fill="black"/>
  <path
      d="M247.556 108.698C247.556 108.698 307.763 134.747 297.307 179.703C287.319 222.55 218.617 185.128 218.617 185.128L222.013 151.501L254.086 154.928L247.556 108.698Z"
      fill="#5FCF86"/>
  <path
      d="M264.853 153.891H264.746C247.162 150.258 227.243 151.462 227.043 151.475C226.973 151.482 226.903 151.474 226.836 151.453C226.77 151.431 226.708 151.396 226.655 151.35C226.603 151.304 226.56 151.247 226.53 151.184C226.5 151.121 226.484 151.052 226.481 150.982C226.473 150.842 226.52 150.704 226.612 150.599C226.705 150.494 226.835 150.429 226.975 150.42C227.174 150.42 247.237 149.171 264.959 152.854C265.027 152.868 265.092 152.895 265.15 152.933C265.208 152.972 265.257 153.022 265.296 153.08C265.334 153.138 265.36 153.203 265.373 153.272C265.386 153.34 265.385 153.411 265.371 153.479C265.344 153.596 265.278 153.7 265.184 153.775C265.09 153.85 264.973 153.891 264.853 153.891Z"
      fill="black"/>
  <path
      d="M248.624 151.261C248.162 151.261 247.85 151.211 247.744 150.899C247.71 150.793 247.71 150.679 247.744 150.573C247.777 150.467 247.843 150.374 247.931 150.306C248.224 150.081 255.241 144.788 259.385 145.368C259.824 145.412 260.25 145.545 260.635 145.76C261.021 145.975 261.358 146.266 261.626 146.617C261.852 146.866 262 147.176 262.053 147.509C262.105 147.842 262.058 148.182 261.92 148.489C260.646 151.074 251.333 151.261 248.624 151.261ZM258.686 146.379C255.958 146.379 251.995 148.789 249.947 150.187C254.585 150.081 260.297 149.419 260.983 148.059C261.027 147.971 261.146 147.747 260.784 147.266C260.601 147.025 260.37 146.824 260.106 146.677C259.841 146.53 259.549 146.439 259.248 146.411C259.066 146.391 258.882 146.38 258.699 146.379H258.686Z"
      fill="black"/>
  <path
      d="M229.365 112.311C227.332 112.308 225.31 112.003 223.367 111.406C223.3 111.386 223.238 111.353 223.184 111.309C223.13 111.264 223.085 111.21 223.053 111.148C223.02 111.087 223 111.019 222.994 110.95C222.988 110.88 222.996 110.811 223.017 110.744C223.036 110.677 223.069 110.614 223.113 110.56C223.157 110.506 223.211 110.461 223.273 110.428C223.335 110.395 223.403 110.376 223.472 110.37C223.542 110.364 223.612 110.372 223.679 110.395C226.585 111.287 229.662 111.48 232.657 110.957C235.652 110.434 238.481 109.211 240.913 107.386C240.966 107.339 241.027 107.304 241.094 107.282C241.16 107.259 241.23 107.251 241.3 107.256C241.37 107.261 241.438 107.28 241.5 107.312C241.562 107.344 241.618 107.388 241.663 107.442C241.753 107.548 241.797 107.686 241.787 107.825C241.776 107.964 241.711 108.093 241.606 108.185C238.085 110.858 233.786 112.307 229.365 112.311Z"
      fill="black"/>
  <path
      d="M250.297 197.372C250.23 197.372 250.165 197.359 250.103 197.335C249.891 197.253 228.773 189.126 218.324 182.266C218.266 182.228 218.216 182.179 218.177 182.122C218.138 182.064 218.111 182 218.097 181.932C218.083 181.864 218.082 181.794 218.096 181.726C218.109 181.658 218.136 181.593 218.174 181.535C218.251 181.418 218.37 181.336 218.507 181.307C218.644 181.278 218.787 181.304 218.904 181.379C229.26 188.177 250.272 196.267 250.484 196.361C250.549 196.386 250.609 196.423 250.66 196.471C250.71 196.519 250.751 196.577 250.78 196.641C250.808 196.704 250.823 196.773 250.825 196.843C250.827 196.913 250.815 196.982 250.79 197.047C250.749 197.144 250.68 197.227 250.593 197.285C250.505 197.342 250.402 197.373 250.297 197.372Z"
      fill="black"/>
  <path
      d="M181.085 176.817C181.011 176.815 180.939 176.799 180.873 176.769C180.806 176.738 180.746 176.694 180.697 176.64C180.648 176.586 180.61 176.522 180.587 176.452C180.563 176.383 180.554 176.309 180.56 176.236C181.515 166.586 186.141 153.259 186.178 153.14C186.201 153.074 186.236 153.013 186.282 152.961C186.329 152.909 186.385 152.867 186.447 152.836C186.51 152.806 186.578 152.789 186.648 152.785C186.717 152.782 186.787 152.792 186.853 152.815C186.985 152.862 187.093 152.959 187.154 153.086C187.215 153.212 187.223 153.357 187.177 153.49C187.133 153.621 182.545 166.829 181.603 176.355C181.588 176.482 181.527 176.599 181.431 176.684C181.336 176.769 181.213 176.816 181.085 176.817Z"
      fill="black"/>
  <path
      d="M168.172 62.7799C166.757 52.6394 157.389 45.5658 147.249 46.9808C137.108 48.3957 130.035 57.7633 131.45 67.9038C132.865 78.0444 142.232 85.1179 152.373 83.7029C162.513 82.288 169.587 72.9205 168.172 62.7799Z"
      fill="#5CB3FF"/>
  <path
      d="M139.875 61.4503C141.336 59.6249 145.101 60.1493 148.766 62.5293C149.936 58.3023 152.252 55.4006 154.599 55.7355C157.234 56.1431 158.847 60.6505 157.916 65.8436C157.353 68.5387 156.24 71.0884 154.645 73.3329C153.542 74.8653 152.943 74.8043 151.69 74.4716C148.983 73.946 146.431 72.8072 144.231 71.1425C140.095 67.9003 138.227 63.4692 139.875 61.4503Z"
      fill="white"/>
  <path
      d="M120.508 96.0861C119.912 91.8142 115.966 88.8343 111.694 89.4303C107.422 90.0264 104.442 93.9727 105.038 98.2447C105.634 102.517 109.58 105.497 113.852 104.9C118.124 104.304 121.104 100.358 120.508 96.0861Z"
      fill="#5CB3FF"/>
  <path
      d="M108.587 95.5259C109.202 94.7569 110.788 94.9778 112.332 95.9804C112.825 94.1997 113.801 92.9773 114.79 93.1184C115.9 93.2901 116.579 95.1889 116.187 97.3767C115.95 98.5121 115.481 99.5862 114.809 100.532C114.344 101.177 114.092 101.152 113.564 101.011C112.423 100.79 111.349 100.31 110.422 99.609C108.679 98.2431 107.892 96.3764 108.587 95.5259Z"
      fill="white"/>
</svg>
