<svg width="60" height="60" viewBox="0 0 60 60" fill="none" xmlns="http://www.w3.org/2000/svg">
  <path
      d="M47.875 42.0606H49C51.275 42.0606 53.1 39.9106 53.1 37.3606V33.8856C53.1 32.0606 52.15 30.3606 50.675 29.6106L46.975 27.6856L43.675 21.7606C42.725 20.0356 41.05 19.0106 39.275 19.0356H25.3C23.675 19.0356 22.15 19.8856 21.175 21.3356L16.925 27.6106L9.9 29.7606C8.1 30.3106 6.875 32.1606 6.875 34.2606V37.3356C6.875 39.8856 8.7 42.0356 10.975 42.0356H11.575"
      stroke="#2563EB" stroke-width="4" stroke-linecap="round" stroke-linejoin="round"></path>
  <path d="M22.1758 42.0605H36.9258" stroke="#2563EB" stroke-width="4" stroke-linecap="round"
        stroke-linejoin="round"></path>
  <path
      d="M16.7258 46.4105C19.5839 46.4105 21.9008 44.0936 21.9008 41.2355C21.9008 38.3775 19.5839 36.0605 16.7258 36.0605C13.8677 36.0605 11.5508 38.3775 11.5508 41.2355C11.5508 44.0936 13.8677 46.4105 16.7258 46.4105Z"
      stroke="#2563EB" stroke-width="4" stroke-linecap="round" stroke-linejoin="round"></path>
  <path
      d="M42.6984 46.4105C45.5565 46.4105 47.8734 44.0936 47.8734 41.2355C47.8734 38.3775 45.5565 36.0605 42.6984 36.0605C39.8404 36.0605 37.5234 38.3775 37.5234 41.2355C37.5234 44.0936 39.8404 46.4105 42.6984 46.4105Z"
      stroke="#2563EB" stroke-width="4" stroke-linecap="round" stroke-linejoin="round"></path>
  <path
      d="M41.9321 32.7608C35.0923 32.7608 29.5508 27.2193 29.5508 20.3794C29.5508 13.5395 35.0923 7.99805 41.9321 7.99805C48.772 7.99805 54.3135 13.5395 54.3135 20.3794C54.3135 27.2193 48.772 32.7608 41.9321 32.7608Z"
      fill="#F7FDF9"></path>
  <path d="M41.3167 22.4945L38.9609 20.1387" stroke="#2563EB" stroke-width="4" stroke-linecap="round"
        stroke-linejoin="round"></path>
  <path d="M46.028 17.7832L41.3164 22.4948" stroke="#2563EB" stroke-width="4" stroke-linecap="round"
        stroke-linejoin="round"></path>
</svg>