<svg width="60" height="61" viewBox="0 0 60 61" fill="none" xmlns="http://www.w3.org/2000/svg"><path d="M47.875 39.7999H49C51.275 39.7999 53.1 37.6499 53.1 35.0999V31.6249C53.1 29.7999 52.15 28.0999 50.675 27.3499L46.975 25.4249L43.675 19.4999C42.725 17.7749 41.05 16.7499 39.275 16.7749H25.3C23.675 16.7749 22.15 17.6249 21.175 19.0749L16.925 25.3499L9.9 27.4999C8.1 28.0499 6.875 29.8999 6.875 31.9999V35.0749C6.875 37.6249 8.7 39.7749 10.975 39.7749H11.575" stroke="#2563EB" stroke-width="4" stroke-linecap="round" stroke-linejoin="round"></path><path d="M22.1797 39.7998H36.9297" stroke="#2563EB" stroke-width="4" stroke-linecap="round" stroke-linejoin="round"></path><path d="M16.7297 44.1496C19.5878 44.1496 21.9047 41.8326 21.9047 38.9746C21.9047 36.1165 19.5878 33.7996 16.7297 33.7996C13.8716 33.7996 11.5547 36.1165 11.5547 38.9746C11.5547 41.8326 13.8716 44.1496 16.7297 44.1496Z" stroke="#2563EB" stroke-width="4" stroke-linecap="round" stroke-linejoin="round"></path><path d="M42.7062 44.1496C45.5643 44.1496 47.8812 41.8326 47.8812 38.9746C47.8812 36.1165 45.5643 33.7996 42.7062 33.7996C39.8482 33.7996 37.5312 36.1165 37.5312 38.9746C37.5312 41.8326 39.8482 44.1496 42.7062 44.1496Z" stroke="#2563EB" stroke-width="4" stroke-linecap="round" stroke-linejoin="round"></path></svg>