<svg width="60" height="60" viewBox="0 0 60 60" fill="none" xmlns="http://www.w3.org/2000/svg"><path d="M29.9977 12.6992C28.2477 12.6992 26.8477 14.1242 26.8477 15.8492C26.8477 17.5992 28.2727 18.9992 29.9977 18.9992C31.7227 18.9992 33.1477 17.5742 33.1477 15.8492C33.1477 14.1242 31.7477 12.6992 29.9977 12.6992Z" fill="#2563EB"></path><path d="M29.9985 6.875C22.8985 6.875 17.1484 12.625 17.1484 19.725C17.1484 25 20.3235 29.5 24.8485 31.5C24.8485 31.85 24.8485 32.225 24.8485 32.575L22.2735 35.15L24.8485 37.725L22.2735 40.3L24.8485 42.875L22.2735 45.45L24.8485 48.025C24.8485 48.875 24.8485 49.75 24.8485 50.6C26.5735 51.45 28.2735 52.325 29.9985 53.175C31.7235 52.325 33.4235 51.45 35.1485 50.6V31.525C39.6735 29.55 42.8485 25.025 42.8485 19.75C42.8485 12.625 37.0985 6.875 29.9985 6.875Z" stroke="#2563EB" stroke-width="4" stroke-linecap="round" stroke-linejoin="round"></path></svg>