<svg width="60" height="61" viewBox="0 0 60 61" fill="none" xmlns="http://www.w3.org/2000/svg">
  <path
      d="M34.3224 9.27461L38.7224 18.0746C39.3224 19.2996 40.9224 20.4746 42.2724 20.6996L50.2474 22.0246C55.3474 22.8746 56.5474 26.5746 52.8724 30.2246L46.6724 36.4246C45.6224 37.4746 45.0474 39.4996 45.3724 40.9496L47.1474 48.6246C48.5474 54.6996 45.3224 57.0496 39.9474 53.8746L32.4724 49.4496C31.1224 48.6496 28.8974 48.6496 27.5224 49.4496L20.0473 53.8746C14.6973 57.0496 11.4473 54.6746 12.8473 48.6246L14.6223 40.9496C14.9473 39.4996 14.3723 37.4746 13.3223 36.4246L7.12233 30.2246C3.47233 26.5746 4.64733 22.8746 9.74733 22.0246L17.7223 20.6996C19.0473 20.4746 20.6473 19.2996 21.2473 18.0746L25.6474 9.27461C28.0474 4.49961 31.9474 4.49961 34.3224 9.27461Z"
      stroke="#2563EB" stroke-width="4" stroke-linecap="round" stroke-linejoin="round"></path>
</svg>